<svg xmlns="http://www.w3.org/2000/svg" viewBox="0 0 568.01 560.2"><defs><style>.cls-1{opacity:0.5;}.cls-2,.cls-4{opacity:0.05;}.cls-3,.cls-4{fill:none;stroke:#000;stroke-linecap:round;stroke-linejoin:round;stroke-width:5px;}.cls-4{isolation:isolate;}</style></defs><title>background</title><g id="Layer_2" data-name="Layer 2"><g id="Layer_1-2" data-name="Layer 1"><g id="Layer_2-2" data-name="Layer 2" class="cls-1"><g id="Layer_1-2-2" data-name="Layer 1-2"><g class="cls-2"><line class="cls-3" x1="197.81" y1="113.53" x2="182.56" y2="99.23"/><line class="cls-3" x1="183.03" y1="114.01" x2="197.34" y2="98.75"/></g><g class="cls-2"><line class="cls-3" x1="215.34" y1="332.97" x2="200.08" y2="318.66"/><line class="cls-3" x1="200.56" y1="333.44" x2="214.86" y2="318.19"/></g><g class="cls-2"><line class="cls-3" x1="29.75" y1="455.57" x2="14.5" y2="441.26"/><line class="cls-3" x1="14.97" y1="456.04" x2="29.27" y2="440.79"/></g><g class="cls-2"><line class="cls-3" x1="23.09" y1="92.65" x2="7.84" y2="78.35"/><line class="cls-3" x1="8.31" y1="93.13" x2="22.61" y2="77.88"/></g><g class="cls-2"><line class="cls-3" x1="565.51" y1="113.16" x2="550.26" y2="98.85"/><line class="cls-3" x1="550.73" y1="113.63" x2="565.03" y2="98.38"/></g><g class="cls-2"><line class="cls-3" x1="385.57" y1="190.96" x2="370.32" y2="176.66"/><line class="cls-3" x1="370.79" y1="191.44" x2="385.1" y2="176.19"/></g><g class="cls-2"><line class="cls-3" x1="459.93" y1="360.77" x2="444.68" y2="346.47"/><line class="cls-3" x1="445.15" y1="361.25" x2="459.46" y2="346"/></g><g class="cls-2"><line class="cls-3" x1="448.09" y1="499.1" x2="432.84" y2="484.8"/><line class="cls-3" x1="433.31" y1="499.58" x2="447.61" y2="484.33"/></g><polygon class="cls-4" points="311.15 136.43 300.65 118.26 290.18 136.44 279.7 154.61 300.68 154.59 321.65 154.58 311.15 136.43"/><polygon class="cls-4" points="276.44 358.43 265.93 340.27 255.46 358.44 244.99 376.61 265.96 376.6 286.94 376.59 276.44 358.43"/><polygon class="cls-4" points="396.78 426.6 386.28 408.44 375.81 426.61 365.33 444.79 386.3 444.77 407.28 444.76 396.78 426.6"/><polygon class="cls-4" points="466 287.17 471.42 266.9 451.16 272.35 430.9 277.79 445.74 292.61 460.58 307.44 466 287.17"/><polygon class="cls-4" points="121.07 51.88 126.49 31.61 106.24 37.06 85.97 42.5 100.82 57.32 115.66 72.15 121.07 51.88"/><polygon class="cls-4" points="106.71 489.79 112.13 469.52 91.87 474.97 71.61 480.41 86.45 495.23 101.29 510.06 106.71 489.79"/><polygon class="cls-4" points="487.25 74.52 505.41 64.02 487.24 53.55 469.06 43.07 469.08 64.04 469.09 85.02 487.25 74.52"/><polygon class="cls-4" points="106.24 284.07 124.41 273.57 106.23 263.1 88.06 252.62 88.08 273.6 88.09 294.57 106.24 284.07"/><path class="cls-4" d="M346.6,249.73a15.92,15.92,0,1,1-15.93-15.91h0a15.91,15.91,0,0,1,15.91,15.91Z"/><path class="cls-4" d="M266.2,72.15a15.92,15.92,0,1,1-15.92-15.92h0A15.92,15.92,0,0,1,266.2,72.15Z"/><path class="cls-4" d="M276.35,541.8a15.91,15.91,0,1,1-15.91-15.92,15.91,15.91,0,0,1,15.91,15.92Z"/><path class="cls-4" d="M318.91,518a15.92,15.92,0,0,1,31.83,0"/><path class="cls-4" d="M191.9,273.6a15.92,15.92,0,0,1,31.83-.8c0,.27,0,.53,0,.8"/><path class="cls-4" d="M24.48,144.39a15.85,15.85,0,0,1,31.69-.8c0,.27,0,.53,0,.8"/><path class="cls-4" d="M425.6,170.45a15.84,15.84,0,1,1,0-31.68h0"/><path class="cls-4" d="M42.42,541.72a15.84,15.84,0,1,1,0-31.68h0"/><path class="cls-4" d="M213.18,35.63a15.84,15.84,0,0,1,0-31.68h0"/><path class="cls-4" d="M50.38,374.35a15.92,15.92,0,1,1-15.93-15.91h0a15.91,15.91,0,0,1,15.91,15.91Z"/><path class="cls-4" d="M541.1,392.53a15.91,15.91,0,1,1-15.91-15.92,15.91,15.91,0,0,1,15.91,15.92Z"/><rect class="cls-4" x="497.09" y="138.78" width="31.65" height="31.65"/><rect class="cls-4" x="139.19" y="154.61" width="31.65" height="31.65"/><rect class="cls-4" x="137.61" y="356.7" width="31.65" height="31.65"/><rect class="cls-4" x="497.09" y="510.06" width="31.65" height="31.65"/><rect class="cls-4" x="365.78" y="3.96" width="31.65" height="31.65"/><g class="cls-2"><path class="cls-3" d="M320.29,325.82c-6.91,0-5.72-12.26-14.53-12.26"/><path class="cls-3" d="M349.36,325.82c-6.91,0-5.71-12.26-14.53-12.26"/><path class="cls-3" d="M320.29,325.82c6.91,0,5.72-12.26,14.54-12.26"/><path class="cls-3" d="M349.36,325.82c6.91,0,5.72-12.26,14.54-12.26"/></g><g class="cls-2"><path class="cls-3" d="M403.11,554c-6.91,0-5.72-12.25-14.54-12.25"/><path class="cls-3" d="M432.18,554c-6.91,0-5.72-12.25-14.53-12.25"/><path class="cls-3" d="M403.11,554c6.91,0,5.72-12.25,14.54-12.25"/><path class="cls-3" d="M432.18,554c6.91,0,5.72-12.25,14.54-12.25"/></g><g class="cls-2"><path class="cls-3" d="M442.75,225c-6.91,0-5.72-12.25-14.53-12.25"/><path class="cls-3" d="M471.83,225c-6.91,0-5.72-12.25-14.54-12.25"/><path class="cls-3" d="M442.75,225c6.91,0,5.72-12.25,14.54-12.25"/><path class="cls-3" d="M471.83,225c6.91,0,5.71-12.25,14.53-12.25"/></g><g class="cls-2"><path class="cls-3" d="M38.47,210.2c-6.91,0-5.72-12.25-14.53-12.25"/><path class="cls-3" d="M67.54,210.2C60.63,210.2,61.83,198,53,198"/><path class="cls-3" d="M38.47,210.2C45.38,210.2,44.19,198,53,198"/><path class="cls-3" d="M67.54,210.2c6.91,0,5.72-12.25,14.54-12.25"/></g><g class="cls-2"><path class="cls-3" d="M322.7,46.15c0,6.91-12.26,5.72-12.26,14.53"/><path class="cls-3" d="M322.7,17c0,6.91-12.26,5.71-12.26,14.53"/><path class="cls-3" d="M322.7,46.15c0-6.91-12.26-5.72-12.26-14.54"/><path class="cls-3" d="M322.7,17c0-6.91-12.26-5.72-12.26-14.54"/></g><g class="cls-2"><path class="cls-3" d="M233.56,198.22c0,6.91-12.26,5.72-12.26,14.54"/><path class="cls-3" d="M233.56,169.15c0,6.91-12.26,5.72-12.26,14.53"/><path class="cls-3" d="M233.56,198.22c0-6.91-12.26-5.72-12.26-14.54"/><path class="cls-3" d="M233.56,169.15c0-6.91-12.26-5.72-12.26-14.54"/></g><g class="cls-2"><path class="cls-3" d="M475.19,441.15c0,6.91-12.25,5.72-12.25,14.54"/><path class="cls-3" d="M475.19,412c0,6.91-12.25,5.71-12.25,14.53"/><path class="cls-3" d="M475.19,441.15c0-6.91-12.25-5.72-12.25-14.54"/><path class="cls-3" d="M475.19,412c0-6.91-12.25-5.72-12.25-14.54"/></g><g class="cls-2"><path class="cls-3" d="M175.39,464c0,6.91-12.26,5.72-12.26,14.53"/><path class="cls-3" d="M175.39,435c0,6.91-12.26,5.71-12.26,14.53"/><path class="cls-3" d="M175.39,464c0-6.91-12.26-5.72-12.26-14.54"/><path class="cls-3" d="M175.39,435c0-6.91-12.26-5.72-12.26-14.54"/></g><line class="cls-4" x1="355.13" y1="358.44" x2="391" y2="358.44"/><line class="cls-4" x1="2.5" y1="254.79" x2="38.37" y2="254.79"/><line class="cls-4" x1="357.81" y1="88.06" x2="393.68" y2="88.06"/><line class="cls-4" x1="499.2" y1="7.11" x2="535.07" y2="7.11"/><line class="cls-4" x1="145.5" y1="541.72" x2="181.37" y2="541.72"/><line class="cls-4" x1="237.6" y1="472.43" x2="262.96" y2="447.06"/><line class="cls-4" x1="27.64" y1="32.47" x2="53.01" y2="7.11"/><line class="cls-4" x1="517.13" y1="292.48" x2="542.49" y2="267.12"/><path class="cls-4" d="M329.08,443.36a6.27,6.27,0,1,1,2-8.64,6.27,6.27,0,0,1-2,8.64Z"/><path class="cls-4" d="M279.69,271a6.27,6.27,0,1,1,2-8.64,6.27,6.27,0,0,1-2,8.64Z"/><path class="cls-4" d="M53.8,324a6.27,6.27,0,1,1,2-8.64,6.27,6.27,0,0,1-2,8.64Z"/><path class="cls-4" d="M118,126.68a6.26,6.26,0,1,1,2-8.64,6.26,6.26,0,0,1-2,8.64Z"/><path class="cls-4" d="M462.8,123.57a6.27,6.27,0,1,1,2-8.64,6.27,6.27,0,0,1-2,8.64Z"/><path class="cls-4" d="M551.35,346.87a6.26,6.26,0,1,1,2-8.64,6.26,6.26,0,0,1-2,8.64Z"/></g></g></g></g></svg>