<svg xmlns="http://www.w3.org/2000/svg" viewBox="0 0 315 212.99"><defs><style>.cls-1{fill:#c1dde0;}.cls-2{fill:#efefef;}.cls-3{fill:none;}.cls-4{fill:#6e6058;}.cls-5{fill:#546b85;}.cls-6{fill:#1cdffe;}.cls-7{fill:#fff;}.cls-8{fill:#dbdfe1;}.cls-9{opacity:0.3;}.cls-10{opacity:0.5;}.cls-11{fill:#fcfcfc;}.cls-12{opacity:0.1;}.cls-13{fill:#f1f5f7;}.cls-14{fill:#e2e6e8;}.cls-15{fill:#d3d7d9;}.cls-16{opacity:0.6;}</style></defs><title>desk</title><g id="Layer_2" data-name="Layer 2"><g id="Layer_1-2" data-name="Layer 1"><g id="Layer_2-2" data-name="Layer 2"><g id="Layer_1-2-2" data-name="Layer 1-2"><polygon class="cls-1" points="287.8 188.62 288.33 189.15 285.61 186.43 285.16 189.96 279.31 194.7 281.05 196.44 282.79 198.18 287.52 192.32 291.06 191.88 288.86 189.68 291.2 186.29 287.8 188.62"/><polygon class="cls-1" points="11.45 99.57 16.19 105.42 17.93 103.68 19.67 101.94 13.82 97.2 13.37 93.67 11.18 95.87 7.78 93.53 10.12 96.93 7.92 99.12 11.45 99.57"/><polygon class="cls-1" points="266.88 197.8 264.68 199.99 261.29 197.66 263.62 201.06 264.15 200.52 261.43 203.25 264.96 203.69 269.7 209.55 271.44 207.81 273.18 206.07 267.32 201.33 266.88 197.8"/><polygon class="cls-1" points="186.97 167.1 179.48 167.89 176.67 165.71 176.67 168.81 172.62 169.56 176.67 170.31 176.67 169.56 176.67 173.41 179.48 171.23 186.97 172.02 186.97 169.56 186.97 167.1"/><polygon class="cls-1" points="114.06 112.08 109.33 106.23 107.59 107.97 105.85 109.71 111.7 114.45 112.15 117.98 114.34 115.78 117.74 118.12 115.4 114.72 117.59 112.53 114.06 112.08"/><polygon class="cls-1" points="13.59 78.24 11.39 76.04 13.72 72.65 10.33 74.98 10.86 75.51 8.13 72.79 7.69 76.32 1.84 81.06 3.58 82.8 5.32 84.54 10.05 78.68 13.59 78.24"/><polygon class="cls-1" points="57.32 13.31 56.78 12.78 59.51 15.51 59.96 11.97 65.81 7.24 64.07 5.5 62.33 3.76 57.59 9.61 54.06 10.06 56.26 12.25 53.92 15.64 57.32 13.31"/><polygon class="cls-1" points="303.89 198.64 301.43 198.64 298.97 198.64 299.76 206.13 297.58 208.94 300.68 208.94 301.43 212.99 302.18 208.94 305.29 208.94 303.11 206.13 303.89 198.64"/><polygon class="cls-1" points="279.81 17.89 279.81 14.78 283.86 14.03 279.81 13.28 279.81 10.18 277 12.36 269.51 11.57 269.51 14.03 269.51 16.49 277 15.7 279.81 17.89"/><polygon class="cls-1" points="250.06 14.96 253.46 12.63 255.65 14.82 256.1 11.29 261.95 6.55 260.21 4.81 258.47 3.07 253.73 8.93 250.2 9.37 252.93 12.1 252.4 11.56 250.06 14.96"/><polygon class="cls-1" points="35.99 16.31 35.99 13.21 40.04 12.46 35.99 11.71 35.99 8.61 33.18 10.79 25.69 10 25.69 12.46 25.69 14.92 33.18 14.13 35.99 16.31"/><path class="cls-1" d="M41.14,158.76a1,1,0,0,0-1.24-.67l-27.28,8.12a1,1,0,0,0-.67,1.24h0l12,40.26a1,1,0,0,0,1.24.67h0l27.27-8.12a1,1,0,0,0,.68-1.24h0Z"/><path class="cls-1" d="M210.67,69.75l36-6-7.88-46.88-5,.84.51,3a2.27,2.27,0,0,1-.7,4.49,2.28,2.28,0,0,1-1.89-1.88A2.25,2.25,0,0,1,232.89,21l-.51-3-3.38.57V8.93h-5.1V12a2.28,2.28,0,1,1-1.43,0V8.93h-4.8V12a2.27,2.27,0,1,1-1.43,0V8.93h-4.79V12A2.28,2.28,0,1,1,210,12V8.93h-4.8V12a2.27,2.27,0,1,1-1.43,0V8.93H199V12a2.25,2.25,0,0,1,1.56,2.14,2.27,2.27,0,1,1-3-2.14V8.93H192.5V56.47h15.94ZM230,23.59a2.28,2.28,0,0,1-1,2.31V22.05A2.23,2.23,0,0,1,230,23.59Z"/><path class="cls-1" d="M254.06,36.34l.48,1.68h0l1.76,6.22h0l3.39,12A1.86,1.86,0,0,0,262,57.57h0L267.5,56v2.2h0V70.65a1.86,1.86,0,0,0,1.82,1.9h0l39.14,0a1.85,1.85,0,0,0,1.81-1.89h0V49.94a1.86,1.86,0,0,0-1.82-1.9h-12.9l4.07-1.16a1.86,1.86,0,0,0,1.23-2.32l-5.63-19.88A1.85,1.85,0,0,0,293,23.36L255.3,34a1.87,1.87,0,0,0-1.24,2.34Z"/><path class="cls-1" d="M154.83,31.78h0c-.11-.66-.19-1.32-.25-2h0l-.88-6.7L26.87,39.76,36,109,162.79,92.33Z"/><path class="cls-1" d="M182.36,68.59a19.53,19.53,0,0,0-2.86-3.85,20.81,20.81,0,0,1-1.81-2.28l-.08-.11a13,13,0,0,1-2.76-9.14c-.09-4,1-7.78,2.24-11.76.68-2.25,1.37-4.58,1.87-7v-.1c.25-2.58.19-4.67-3-6.22-2.28-1.83-5.64-2.86-10.24-3.18a17.44,17.44,0,0,0-8.84.36c-.53.07-1.86.35-3.89.79a12.43,12.43,0,0,1,.32,2c1.7-.37,3.49-.75,3.86-.79h.16a15.51,15.51,0,0,1,8-.34h.16c4.28.28,7.32,1.19,9.28,2.8l.21.13c2.07,1,2.2,1.94,2,4.22-.48,2.34-1.16,4.6-1.82,6.79-1.24,4.14-2.42,8.06-2.32,12.33A15.16,15.16,0,0,0,176,63.58a20.57,20.57,0,0,0,2,2.47,18.61,18.61,0,0,1,2.58,3.47c1.15,2.19.31,5.17-.29,6.74l-.18.93c-.6,3.37-1.22,6.85-3.18,9.26-1.84,2.63-4.39,3.45-7.09,4.31-.81.27-1.65.53-2.37.82-3.28,1-11.34,3.81-15.2,10-.21.35-.39.68-.56,1a9,9,0,0,0-8.87,9V121.7a9,9,0,0,0,18,0V111.54a9,9,0,0,0-7-8.77l.11-.18c3.49-5.55,11-8.2,14.15-9.12.74-.29,1.51-.54,2.33-.8,2.76-.88,5.89-1.89,8.07-5,2.25-2.75,2.94-6.66,3.56-10.11l.11-.65C182.91,75,183.84,71.44,182.36,68.59Z"/><path class="cls-1" d="M14.54,40.89,163.2,21.35a3.53,3.53,0,0,0-.91-7L13.63,33.92a3.53,3.53,0,0,0,.91,7Z"/><path class="cls-1" d="M51.14,127.77H33.49l-.78-.78-3.47-3.44h0l-1.45-1.45a.82.82,0,0,0-1.16-.07L23,125.74a.83.83,0,0,0,.08,1.16l.94.93H15.54a.82.82,0,0,0-.87.76v5.16a.83.83,0,0,0,.88.76H30.71l17.46,17.37h0l2.54,2.52,3.46,1.07h0l3.42,1-1.92-6.66L53,147.12,40.19,134.47H54.56l3.21-1.69v.07l3.13-1.72-6.08-3.35Z"/><polygon class="cls-1" points="126.58 127.24 70.61 127.24 70.61 159 106.82 159 106.82 174.13 107.01 174.13 162.74 174.13 162.79 174.13 162.79 142.6 162.79 142.36 126.58 142.36 126.58 127.24"/><path class="cls-1" d="M300.49,179.22,315,102.93,255.58,91.6,254,99.76l-3.33-.63L252.24,91,192.79,79.64l-14.54,76.29,59.46,11.33,1.89-9.9,3.33.63L241,167.9Zm-46.93-77-4.85,25.47-3.34-.63,4.86-25.48ZM240.06,155l4.85-25.47,3.33.63-4.85,25.48Z"/><polygon class="cls-2" points="283.32 186.89 277.47 191.63 279.21 193.37 280.95 195.1 285.69 189.25 289.22 188.81 286.5 186.08 283.77 183.36 283.32 186.89"/><line class="cls-3" x1="286.49" y1="186.08" x2="289.36" y2="183.22"/><polygon class="cls-4" points="285.96 185.55 289.36 183.22 287.03 186.61 285.96 185.55"/><polygon class="cls-2" points="9.62 96.5 14.35 102.35 16.09 100.61 17.83 98.87 11.98 94.13 11.53 90.6 8.81 93.33 6.08 96.05 9.62 96.5"/><line class="cls-3" x1="8.81" y1="93.33" x2="5.94" y2="90.46"/><polygon class="cls-4" points="8.28 93.86 5.94 90.46 9.34 92.8 8.28 93.86"/><polygon class="cls-5" points="263.12 200.62 267.86 206.47 269.6 204.74 271.34 203 265.49 198.26 265.04 194.73 262.32 197.45 259.59 200.18 263.12 200.62"/><line class="cls-3" x1="262.32" y1="197.45" x2="259.45" y2="194.59"/><polygon class="cls-4" points="261.79 197.98 259.45 194.59 262.85 196.92 261.79 197.98"/><polygon class="cls-6" points="177.65 168.16 185.13 168.95 185.13 166.49 185.13 164.03 177.65 164.81 174.83 162.63 174.84 166.49 174.84 170.34 177.65 168.16"/><line class="cls-3" x1="174.83" y1="166.49" x2="170.78" y2="166.49"/><polygon class="cls-4" points="174.84 167.24 170.78 166.49 174.84 165.74 174.84 167.24"/><polygon class="cls-5" points="112.23 109.01 107.49 103.16 105.75 104.9 104.01 106.64 109.86 111.38 110.31 114.91 113.03 112.18 115.76 109.45 112.23 109.01"/><line class="cls-3" x1="113.03" y1="112.18" x2="115.9" y2="115.04"/><polygon class="cls-4" points="113.56 111.65 115.9 115.05 112.5 112.71 113.56 111.65"/><polygon class="cls-6" points="5.85 73.25 0 77.98 1.74 79.72 3.48 81.46 8.22 75.61 11.75 75.17 9.02 72.44 6.3 69.72 5.85 73.25"/><line class="cls-3" x1="9.02" y1="72.44" x2="11.89" y2="69.58"/><polygon class="cls-4" points="8.49 71.91 11.89 69.58 9.55 72.97 8.49 71.91"/><polygon class="cls-6" points="58.12 8.9 63.97 4.16 62.23 2.42 60.49 0.69 55.76 6.54 52.22 6.98 54.95 9.71 57.67 12.43 58.12 8.9"/><line class="cls-3" x1="54.95" y1="9.71" x2="52.08" y2="12.57"/><polygon class="cls-4" points="55.48 10.24 52.09 12.57 54.42 9.18 55.48 10.24"/><polygon class="cls-5" points="301.27 203.05 302.06 195.56 299.6 195.56 297.14 195.56 297.93 203.05 295.74 205.87 299.6 205.87 303.45 205.87 301.27 203.05"/><polygon class="cls-7" points="275.16 12.63 267.68 13.42 267.68 10.96 267.68 8.5 275.16 9.29 277.98 7.11 277.98 10.96 277.98 14.81 275.16 12.63"/><line class="cls-3" x1="277.98" y1="10.96" x2="282.03" y2="10.96"/><polygon class="cls-4" points="277.98 10.21 282.03 10.96 277.98 11.71 277.98 10.21"/><polygon class="cls-6" points="251.9 5.85 256.63 0 258.37 1.74 260.11 3.48 254.26 8.22 253.81 11.75 251.09 9.02 248.37 6.3 251.9 5.85"/><line class="cls-3" x1="251.09" y1="9.02" x2="248.23" y2="11.89"/><polygon class="cls-4" points="251.62 9.55 248.22 11.89 250.56 8.49 251.62 9.55"/><line class="cls-3" x1="299.6" y1="205.87" x2="299.6" y2="209.92"/><polygon class="cls-4" points="300.35 205.87 299.6 209.92 298.85 205.87 300.35 205.87"/><polygon class="cls-5" points="31.34 7.71 23.86 6.93 23.86 9.39 23.86 11.85 31.34 11.06 34.16 13.24 34.16 9.39 34.16 5.53 31.34 7.71"/><line class="cls-3" x1="34.16" y1="9.39" x2="38.21" y2="9.38"/><polygon class="cls-4" points="34.16 8.64 38.21 9.38 34.16 10.14 34.16 8.64"/><path class="cls-5" d="M7.11,163.38a1,1,0,0,1,.67-1.24L35.06,154a1,1,0,0,1,1.24.67l12,40.27a1,1,0,0,1-.67,1.24L20.35,204.3a1,1,0,0,1-1.24-.67Z"/><path class="cls-8" d="M11,165.61a.82.82,0,0,1,.54-1l21.77-6.48a.79.79,0,0,1,1,.51v0l9.57,32.13a.8.8,0,0,1-.53,1h0l-21.77,6.48a.78.78,0,0,1-1-.51v0Z"/><g class="cls-9"><path class="cls-7" d="M33.29,158.14a.79.79,0,0,1,1,.51v0l9.57,32.13a.8.8,0,0,1-.53,1h0l-21.77,6.48a.78.78,0,0,1-1-.51v0"/></g><path class="cls-8" d="M27.39,199.35a.5.5,0,0,1,.32-.62h0l10.66-3.18a.49.49,0,0,1,.62.34h0a.5.5,0,0,1-.33.62L28,199.69a.49.49,0,0,1-.62-.34Z"/><path class="cls-5" d="M220.06,3.86V6.94a2.27,2.27,0,1,1-1.43,0V3.86h-4.79V6.94a2.28,2.28,0,1,1-1.43,0V3.86h-4.8V6.94a2.27,2.27,0,1,1-1.43,0V3.86h-4.8V6.94a2.27,2.27,0,1,1-1.42,0V3.86h-4.8V6.94a2.28,2.28,0,1,1-1.43,0V3.86h-5.07V51.39h36.47V3.86Z"/><g class="cls-10"><rect class="cls-8" x="193.2" y="17.33" width="27.68" height="3.14"/></g><g class="cls-10"><rect class="cls-8" x="193.2" y="22.56" width="27.68" height="3.14"/></g><g class="cls-10"><rect class="cls-8" x="193.2" y="27.79" width="27.68" height="3.14"/></g><g class="cls-10"><rect class="cls-8" x="193.2" y="33.02" width="27.68" height="3.14"/></g><g class="cls-10"><rect class="cls-8" x="193.2" y="38.25" width="27.68" height="3.14"/></g><path class="cls-7" d="M229.92,12.59l.51,3a2.29,2.29,0,1,1-1.41.24l-.51-3-4.73.8.51,3a2.29,2.29,0,1,1-1.41.24l-.51-3-4.73.79.51,3A2.24,2.24,0,0,1,220,19.55a2.27,2.27,0,1,1-3.3-1.62l-.51-3-4.73.8.51,3a2.27,2.27,0,0,1-.7,4.49A2.24,2.24,0,0,1,210.6,19l-.51-3-4.73.8.51,3a2.29,2.29,0,1,1-1.41.24L204,17l-5,.84,7.89,46.87,36-6L235,11.79Z"/><rect class="cls-8" x="205.72" y="28" width="27.68" height="3.14" transform="translate(-1.86 36.84) rotate(-9.55)"/><rect class="cls-8" x="206.6" y="33.18" width="27.68" height="3.14" transform="translate(-2.71 37.02) rotate(-9.54)"/><rect class="cls-8" x="207.47" y="38.32" width="27.68" height="3.14" transform="translate(-3.55 37.27) rotate(-9.55)"/><rect class="cls-8" x="208.33" y="43.48" width="27.68" height="3.14" transform="translate(-4.39 37.48) rotate(-9.55)"/><rect class="cls-8" x="209.2" y="48.63" width="27.68" height="3.14" transform="translate(-5.24 37.7) rotate(-9.55)"/><path class="cls-6" d="M297,39.5a1.86,1.86,0,0,1-1.24,2.32h0L258.12,52.49a1.86,1.86,0,0,1-2.26-1.33l-5.63-19.89A1.85,1.85,0,0,1,251.46,29l37.66-10.66a1.87,1.87,0,0,1,2.27,1.33h0Z"/><rect class="cls-11" x="250.77" y="27" width="42.78" height="6.47" transform="translate(2.06 75.29) rotate(-15.81)"/><rect class="cls-5" x="256.06" y="36.4" width="27.6" height="3.24" transform="translate(-0.15 74.96) rotate(-15.81)"/><rect class="cls-5" x="258.48" y="44.34" width="7.05" height="4.04" rx="1.82" ry="1.82" transform="translate(-2.7 73.27) rotate(-15.84)"/><path class="cls-5" d="M306.46,65.52a1.86,1.86,0,0,1-1.82,1.9H265.5a1.86,1.86,0,0,1-1.82-1.9h0V44.86A1.86,1.86,0,0,1,265.5,43h39.14a1.86,1.86,0,0,1,1.82,1.89Z"/><rect class="cls-11" x="263.66" y="46.62" width="42.78" height="6.47" transform="translate(-0.06 0.35) rotate(-0.07)"/><rect class="cls-8" x="266.92" y="55.21" width="27.6" height="3.56" transform="translate(-0.07 0.34) rotate(-0.07)"/><path class="cls-8" d="M274.43,62.81a1.81,1.81,0,0,1-1.82,1.82H269.2a1.81,1.81,0,0,1-1.82-1.8h0v-.41a1.81,1.81,0,0,1,1.8-1.82h3.43a1.81,1.81,0,0,1,1.82,1.8h0Z"/><path class="cls-5" d="M151.14,109.94l-1.95-.44a3.35,3.35,0,0,0-.28-2.86v-.11a7.53,7.53,0,0,1,1-6.93c3.86-6.15,11.91-9,15.2-9.95.71-.29,1.56-.56,2.37-.82,2.7-.87,5.25-1.68,7.08-4.32,2-2.41,2.59-5.89,3.18-9.26l.19-.93c.6-1.57,1.43-4.55.29-6.74a18.61,18.61,0,0,0-2.58-3.47,19.81,19.81,0,0,1-2-2.47,15.13,15.13,0,0,1-3.18-10.38c-.1-4.27,1.08-8.18,2.32-12.33.66-2.19,1.34-4.45,1.81-6.78.22-2.29.1-3.25-2-4.22l-.21-.14c-2-1.6-5-2.52-9.28-2.8H163a15.41,15.41,0,0,0-8,.35h-.17c-.39,0-2.43.47-4.23.86-2.61.56-5.31,1.14-6.18,1.23l-.2-2c.76-.08,3.65-.7,6-1.2s3.8-.81,4.36-.88a17.33,17.33,0,0,1,8.84-.36c4.61.31,8,1.34,10.25,3.17,3.19,1.55,3.25,3.64,3,6.22v.1c-.49,2.44-1.19,4.77-1.86,7-1.2,4-2.33,7.75-2.24,11.77a13.09,13.09,0,0,0,2.76,9.14l.07.1a22.18,22.18,0,0,0,1.82,2.28,19.26,19.26,0,0,1,2.85,3.86c1.49,2.84.56,6.37-.16,8.29l-.12.65c-.61,3.45-1.3,7.36-3.55,10.11-2.18,3.13-5.31,4.14-8.07,5-.82.26-1.59.51-2.34.81-3.15.91-10.65,3.56-14.14,9.11a5.52,5.52,0,0,0-.8,5.23A5.22,5.22,0,0,1,151.14,109.94Z"/><rect class="cls-7" x="25.64" y="25.74" width="127.9" height="69.83" transform="translate(-7.14 12.2) rotate(-7.49)"/><rect class="cls-8" x="74.15" y="72.62" width="36.59" height="19.51" transform="translate(-9.95 12.75) rotate(-7.49)"/><rect class="cls-5" x="34.28" y="48.3" width="5.48" height="5.48" transform="translate(-6.33 5.25) rotate(-7.48)"/><rect class="cls-5" x="42.71" y="47.18" width="5.48" height="5.48" transform="translate(-6.11 6.34) rotate(-7.48)"/><rect class="cls-5" x="51.14" y="46.07" width="5.48" height="5.48" transform="translate(-5.9 7.44) rotate(-7.49)"/><rect class="cls-5" x="59.47" y="44.93" width="5.47" height="5.47" transform="translate(-5.68 8.51) rotate(-7.48)"/><rect class="cls-5" x="68.01" y="43.86" width="5.48" height="5.48" transform="translate(-5.47 9.62) rotate(-7.49)"/><rect class="cls-5" x="76.43" y="42.75" width="5.48" height="5.48" transform="translate(-5.25 10.71) rotate(-7.49)"/><rect class="cls-5" x="84.88" y="41.65" width="5.48" height="5.48" transform="translate(-5.04 11.8) rotate(-7.49)"/><rect class="cls-5" x="93.31" y="40.53" width="5.48" height="5.48" transform="translate(-4.82 12.89) rotate(-7.49)"/><rect class="cls-5" x="101.74" y="39.42" width="5.48" height="5.48" transform="translate(-4.6 13.96) rotate(-7.48)"/><rect class="cls-5" x="110.17" y="38.31" width="5.48" height="5.48" transform="translate(-4.38 15.05) rotate(-7.48)"/><rect class="cls-5" x="118.42" y="37.2" width="5.47" height="5.47" transform="translate(-4.17 16.11) rotate(-7.48)"/><rect class="cls-5" x="127.04" y="36.1" width="5.48" height="5.48" transform="translate(-3.96 17.25) rotate(-7.49)"/><rect class="cls-5" x="135.47" y="34.99" width="5.48" height="5.48" transform="translate(-3.74 18.34) rotate(-7.49)"/><rect class="cls-5" x="33.07" y="39.06" width="5.48" height="5.48" transform="translate(-5.14 5.02) rotate(-7.49)"/><rect class="cls-5" x="41.5" y="37.95" width="5.48" height="5.48" transform="translate(-4.93 6.11) rotate(-7.49)"/><rect class="cls-5" x="49.93" y="36.84" width="5.48" height="5.48" transform="translate(-4.71 7.2) rotate(-7.49)"/><rect class="cls-5" x="58.26" y="35.69" width="5.47" height="5.47" transform="translate(-4.48 8.27) rotate(-7.48)"/><rect class="cls-5" x="66.79" y="34.62" width="5.48" height="5.48" transform="translate(-4.28 9.38) rotate(-7.49)"/><rect class="cls-5" x="75.23" y="33.5" width="5.48" height="5.48" transform="translate(-4.06 10.47) rotate(-7.49)"/><rect class="cls-5" x="83.66" y="32.39" width="5.48" height="5.48" transform="translate(-3.84 11.55) rotate(-7.48)"/><rect class="cls-5" x="92.09" y="31.3" width="5.48" height="5.48" transform="translate(-3.62 12.64) rotate(-7.48)"/><rect class="cls-5" x="100.52" y="30.19" width="5.48" height="5.48" transform="translate(-3.41 13.74) rotate(-7.49)"/><rect class="cls-5" x="108.96" y="29.08" width="5.48" height="5.48" transform="translate(-3.19 14.83) rotate(-7.49)"/><rect class="cls-5" x="117.39" y="27.97" width="5.48" height="5.48" transform="translate(-2.98 15.92) rotate(-7.49)"/><rect class="cls-5" x="125.82" y="26.86" width="5.48" height="5.48" transform="translate(-2.76 17.01) rotate(-7.49)"/><rect class="cls-5" x="134.25" y="25.74" width="5.48" height="5.48" transform="translate(-2.54 18.08) rotate(-7.48)"/><rect class="cls-5" x="35.27" y="55.81" width="5.48" height="5.48" transform="translate(-7.31 5.45) rotate(-7.49)"/><rect class="cls-5" x="43.7" y="54.7" width="5.48" height="5.48" transform="translate(-7.09 6.54) rotate(-7.49)"/><rect class="cls-5" x="52.12" y="53.59" width="5.48" height="5.48" transform="translate(-6.87 7.63) rotate(-7.49)"/><rect class="cls-5" x="60.56" y="52.48" width="5.48" height="5.48" transform="translate(-6.66 8.72) rotate(-7.49)"/><rect class="cls-5" x="69" y="51.36" width="5.48" height="5.48" transform="translate(-6.43 9.8) rotate(-7.48)"/><rect class="cls-5" x="77.43" y="50.25" width="5.48" height="5.48" transform="translate(-6.22 10.89) rotate(-7.48)"/><rect class="cls-5" x="85.86" y="49.16" width="5.48" height="5.48" transform="translate(-6.01 11.99) rotate(-7.49)"/><rect class="cls-5" x="94.3" y="48.05" width="5.48" height="5.48" transform="translate(-5.79 13.08) rotate(-7.49)"/><rect class="cls-5" x="102.72" y="46.94" width="5.48" height="5.48" transform="translate(-5.58 14.17) rotate(-7.49)"/><rect class="cls-5" x="110.98" y="45.79" width="5.47" height="5.47" transform="translate(-5.35 15.22) rotate(-7.48)"/><rect class="cls-5" x="119.4" y="44.69" width="5.47" height="5.47" transform="translate(-5.13 16.31) rotate(-7.48)"/><rect class="cls-5" x="128.01" y="43.6" width="5.48" height="5.48" transform="translate(-4.92 17.44) rotate(-7.49)"/><rect class="cls-5" x="136.45" y="42.49" width="5.48" height="5.48" transform="translate(-4.7 18.51) rotate(-7.48)"/><rect class="cls-5" x="36.25" y="63.3" width="5.48" height="5.48" transform="translate(-8.27 5.64) rotate(-7.48)"/><rect class="cls-5" x="44.69" y="62.2" width="5.48" height="5.48" transform="translate(-8.06 6.74) rotate(-7.49)"/><rect class="cls-5" x="53.11" y="61.09" width="5.48" height="5.48" transform="translate(-7.84 7.83) rotate(-7.49)"/><rect class="cls-5" x="61.55" y="59.98" width="5.48" height="5.48" transform="translate(-7.63 8.92) rotate(-7.49)"/><rect class="cls-5" x="69.98" y="58.88" width="5.48" height="5.48" transform="translate(-7.41 10.01) rotate(-7.49)"/><rect class="cls-5" x="78.42" y="57.76" width="5.48" height="5.48" transform="translate(-7.19 11.1) rotate(-7.49)"/><rect class="cls-5" x="86.85" y="56.65" width="5.48" height="5.48" transform="translate(-6.98 12.18) rotate(-7.49)"/><rect class="cls-5" x="95.27" y="55.55" width="5.48" height="5.48" transform="translate(-6.75 13.26) rotate(-7.48)"/><rect class="cls-5" x="103.71" y="54.45" width="5.48" height="5.48" transform="translate(-6.54 14.34) rotate(-7.48)"/><rect class="cls-5" x="112.15" y="53.34" width="5.48" height="5.48" transform="translate(-6.33 15.45) rotate(-7.49)"/><rect class="cls-5" x="120.58" y="52.23" width="5.48" height="5.48" transform="translate(-6.11 16.54) rotate(-7.49)"/><rect class="cls-5" x="129" y="50.92" width="8.51" height="5.48" transform="translate(-5.86 17.83) rotate(-7.49)"/><rect class="cls-5" x="137.04" y="43.87" width="5.48" height="11.65" transform="translate(-5.28 18.62) rotate(-7.48)"/><rect class="cls-5" x="37.24" y="70.81" width="5.48" height="5.48" transform="translate(-9.25 5.84) rotate(-7.49)"/><rect class="cls-5" x="45.67" y="69.7" width="5.48" height="5.48" transform="translate(-9.03 6.93) rotate(-7.49)"/><rect class="cls-5" x="54.1" y="68.59" width="5.48" height="5.48" transform="translate(-8.8 8.01) rotate(-7.48)"/><rect class="cls-5" x="62.54" y="67.49" width="5.48" height="5.48" transform="translate(-8.59 9.1) rotate(-7.48)"/><rect class="cls-5" x="70.87" y="64.89" width="28.26" height="5.48" transform="translate(-8.09 11.66) rotate(-7.49)"/><rect class="cls-5" x="79.39" y="65.27" width="5.48" height="5.48" transform="translate(-8.16 11.29) rotate(-7.49)"/><rect class="cls-5" x="87.84" y="64.16" width="5.48" height="5.48" transform="translate(-7.95 12.38) rotate(-7.49)"/><rect class="cls-5" x="96.27" y="63.05" width="5.48" height="5.48" transform="translate(-7.73 13.47) rotate(-7.49)"/><rect class="cls-5" x="104.52" y="61.89" width="5.47" height="5.47" transform="translate(-7.5 14.51) rotate(-7.48)"/><rect class="cls-5" x="113.13" y="60.83" width="5.48" height="5.48" transform="translate(-7.3 15.65) rotate(-7.49)"/><rect class="cls-5" x="121.57" y="59.73" width="5.48" height="5.48" transform="translate(-7.08 16.74) rotate(-7.49)"/><rect class="cls-5" x="130" y="58.63" width="5.48" height="5.48" transform="translate(-6.86 17.8) rotate(-7.48)"/><rect class="cls-5" x="138.43" y="57.51" width="5.48" height="5.48" transform="translate(-6.65 18.92) rotate(-7.49)"/><path class="cls-2" d="M162.4,12.33a3.53,3.53,0,0,1-3,4h0L10.71,35.82a3.54,3.54,0,0,1-4-3v0h0a3.52,3.52,0,0,1,3-3.94L158.45,9.3a3.53,3.53,0,0,1,4,3h0Z"/><g class="cls-12"><polyline points="30.73 103.62 21.63 34.39 148.44 17.71"/></g><path class="cls-6" d="M158.43,119.72a9,9,0,0,1-9,9h0a9,9,0,0,1-9-9V109.6a9,9,0,0,1,9-9h0a9,9,0,0,1,9,9h0Z"/><path class="cls-5" d="M157,110a7.62,7.62,0,0,0-15.22,0Z"/><path class="cls-11" d="M150.82,112.42a1.29,1.29,0,0,1-1.39,1.16h0a1.29,1.29,0,0,1-1.39-1.16v-4.89a1.28,1.28,0,0,1,1.39-1.17h0a1.28,1.28,0,0,1,1.39,1.17Z"/><polygon class="cls-6" points="57.06 126.03 50.72 129.37 47.15 129.38 47.12 122.69 50.98 122.68 57.06 126.03"/><polygon class="cls-7" points="53.93 127.75 57.06 126.03 53.91 124.36 53.93 127.75"/><path class="cls-7" d="M10.83,123.55a.84.84,0,0,1,.87-.77h2.19a.84.84,0,0,1,.89.76v5.15a.82.82,0,0,1-.87.77H11.74a.82.82,0,0,1-.88-.76h0Z"/><polygon class="cls-5" points="18.64 122.76 13.75 122.78 13.78 129.46 18.67 129.44 48.31 129.38 48.28 122.69 18.64 122.76"/><polygon class="cls-5" points="53.73 151.44 46.89 149.32 44.35 146.8 49.05 142.05 51.8 144.78 53.73 151.44"/><polygon class="cls-7" points="50.3 150.44 53.73 151.44 52.69 148.03 50.3 150.44"/><path class="cls-7" d="M22.79,117a.82.82,0,0,1,1.16.07l1.56,1.55a.83.83,0,0,1,.08,1.16L22,123.44a.82.82,0,0,1-1.16-.07l-1.55-1.55a.83.83,0,0,1-.09-1.16Z"/><polygon class="cls-6" points="28.87 121.96 25.4 118.51 20.7 123.26 24.17 126.71 45.18 147.62 49.88 142.87 28.87 121.96"/><polygon class="cls-13" points="159.83 138.35 159.83 138.11 103.96 138.11 132.01 154.07 159.83 138.35"/><polygon class="cls-14" points="159.78 169.88 159.83 169.88 159.83 138.35 132.01 154.07 159.78 169.88"/><polygon class="cls-14" points="103.96 138.11 103.86 138.11 103.86 169.88 104.05 169.88 132.01 154.07 103.96 138.11"/><polygon class="cls-15" points="132.01 154.07 104.05 169.88 159.78 169.88 132.01 154.07"/><rect class="cls-7" x="67.64" y="122.99" width="55.98" height="31.76"/><rect class="cls-6" x="107.7" y="128.29" width="9.69" height="9.69"/><rect class="cls-8" x="75.35" y="132.44" width="12.58" height="4.48"/><rect class="cls-8" x="87.07" y="141.31" width="30.32" height="1.47"/><rect class="cls-8" x="87.07" y="144.38" width="30.32" height="1.47"/><rect class="cls-8" x="87.07" y="147.46" width="30.32" height="1.47"/><rect class="cls-5" x="172.59" y="88.12" width="77.67" height="60.52" transform="translate(55.55 303.91) rotate(-79.21)"/><rect class="cls-11" x="174.85" y="91.52" width="73.15" height="53.73" transform="translate(55.55 303.9) rotate(-79.21)"/><rect class="cls-5" x="235.38" y="100.08" width="77.67" height="60.52" transform="translate(94.84 375.31) rotate(-79.21)"/><rect class="cls-6" x="237.65" y="103.49" width="73.15" height="53.73" transform="translate(94.84 375.33) rotate(-79.21)"/><path class="cls-5" d="M241.19,94.23a2.11,2.11,0,0,1-2.47,1.68h0A2.12,2.12,0,0,1,237,93.46v0h0a2.11,2.11,0,0,1,2.47-1.67h0a2.1,2.1,0,0,1,1.68,2.45h0Z"/><path class="cls-5" d="M259.53,97.73a2.11,2.11,0,0,1-2.47,1.67h0a2.1,2.1,0,0,1-1.67-2.46h0a2.1,2.1,0,0,1,2.45-1.68h0a2.11,2.11,0,0,1,1.68,2.47Z"/><path class="cls-5" d="M235.87,122.13a2.11,2.11,0,0,1-2.47,1.68h0a2.1,2.1,0,0,1-1.67-2.46h0a2.11,2.11,0,0,1,2.47-1.68h0a2.1,2.1,0,0,1,1.67,2.46Z"/><path class="cls-5" d="M254.21,125.63a2.1,2.1,0,0,1-2.45,1.68h0a2.11,2.11,0,0,1-1.68-2.47h0a2.12,2.12,0,0,1,2.47-1.68h0A2.11,2.11,0,0,1,254.21,125.63Z"/><path class="cls-5" d="M230.56,150a2.11,2.11,0,0,1-2.47,1.67h0a2.1,2.1,0,0,1-1.68-2.45h0a2.11,2.11,0,0,1,2.47-1.68h0A2.12,2.12,0,0,1,230.56,150Z"/><path class="cls-5" d="M248.9,153.53a2.11,2.11,0,0,1-2.47,1.68h0a2.12,2.12,0,0,1-1.68-2.47h0a2.13,2.13,0,0,1,2.47-1.68h0a2.11,2.11,0,0,1,1.68,2.47Z"/><path class="cls-8" d="M257.46,97.33a1.24,1.24,0,0,1-1.44,1h0l-15.91-3a1.23,1.23,0,0,1-1-1.42v0h0a1.23,1.23,0,0,1,1.4-1h0l15.92,3a1.23,1.23,0,0,1,1,1.42Z"/><path class="cls-8" d="M252.14,125.24a1.23,1.23,0,0,1-1.42,1h0l-15.92-3a1.24,1.24,0,0,1-1-1.44h0a1.23,1.23,0,0,1,1.42-1h0l15.92,3a1.24,1.24,0,0,1,1,1.44Z"/><path class="cls-8" d="M246.83,153.14a1.24,1.24,0,0,1-1.44,1h0l-15.91-3a1.25,1.25,0,0,1-1-1.45h0a1.24,1.24,0,0,1,1.44-1h0l15.91,3A1.25,1.25,0,0,1,246.83,153.14Z"/><polygon class="cls-5" points="199.27 94.82 195.46 97.42 198.05 101.22 199.14 100.48 197.29 97.76 200.01 95.91 199.27 94.82"/><polygon class="cls-5" points="230.14 107.33 233.95 104.74 231.36 100.93 230.27 101.67 232.12 104.39 229.4 106.24 230.14 107.33"/><path class="cls-8" d="M224.41,94.53a11.66,11.66,0,1,0-3.08,16.21A11.67,11.67,0,0,0,224.41,94.53ZM210.49,104a5.17,5.17,0,1,1,7.18,1.36h0A5.18,5.18,0,0,1,210.49,104Z"/><path class="cls-6" d="M217.67,105.36A5.17,5.17,0,1,1,219,98.17h0l5.37-3.65a11.66,11.66,0,1,0-3.08,16.21Z"/><polyline class="cls-8" points="221.82 122.99 191.78 117.27 192.21 115 226.49 121.52 226.06 123.8 221.82 122.99"/><rect class="cls-8" x="204.1" y="109.21" width="2.31" height="28.89" transform="translate(45.42 302.19) rotate(-79.23)"/><rect class="cls-8" x="206.14" y="111.59" width="2.31" height="34.9" transform="translate(41.79 308.57) rotate(-79.23)"/><g class="cls-16"><polyline class="cls-7" points="292.25 105.84 264.02 100.47 264.45 98.2 296.66 104.33 296.23 106.6 292.25 105.84"/></g><g class="cls-16"><rect class="cls-7" x="278.25" y="90.82" width="2.31" height="32.79" transform="translate(121.87 361.66) rotate(-79.23)"/></g><g class="cls-16"><rect class="cls-7" x="273.42" y="98.87" width="2.31" height="24.83" transform="translate(113.94 360.23) rotate(-79.23)"/></g><g class="cls-16"><rect class="cls-7" x="270.16" y="121.07" width="2.31" height="27.15" transform="translate(88.34 376.02) rotate(-79.23)"/></g><g class="cls-16"><rect class="cls-7" x="272.01" y="123.6" width="2.31" height="32.79" transform="translate(84.59 382.19) rotate(-79.23)"/></g><g class="cls-16"><polyline class="cls-7" points="281.6 161.79 253.37 156.42 253.8 154.15 286.02 160.28 285.59 162.55 281.6 161.79"/></g><rect class="cls-8" x="200.38" y="126.47" width="2.31" height="27.81" transform="translate(25.97 312.13) rotate(-79.23)"/><rect class="cls-8" x="202.92" y="128.41" width="2.31" height="34.9" transform="translate(22.65 319.09) rotate(-79.23)"/><g class="cls-16"><rect class="cls-7" x="260.49" y="114.17" width="10.31" height="10.31" transform="translate(98.79 358) rotate(-79.23)"/></g><g class="cls-16"><rect class="cls-7" x="266.32" y="132.53" width="10.31" height="32.79" transform="matrix(0.19, -0.98, 0.98, 0.19, 74.44, 387.79)"/></g><g class="cls-16"><rect class="cls-7" x="278.26" y="113.14" width="10.31" height="19.13" transform="translate(109.91 378.2) rotate(-79.23)"/></g></g></g></g></g></svg>