<svg xmlns="http://www.w3.org/2000/svg" viewBox="0 0 457.68 410.6"><defs><style>.cls-1{fill:#2d4154;}</style></defs><title>Front-End</title><g id="Layer_2" data-name="Layer 2"><g id="Layer_1-2" data-name="Layer 1"><path class="cls-1" d="M439.48,143.55V32.3A32.34,32.34,0,0,0,407.18,0H32.3A32.34,32.34,0,0,0,0,32.3V258.93a32.34,32.34,0,0,0,32.3,32.3H138.54l-12.16,13.09H108.16a7.5,7.5,0,0,0,0,15H212.52v72.33a19,19,0,0,0,18.95,19H312.1a19,19,0,0,0,18.95-19V376.42H432a25.72,25.72,0,0,0,25.69-25.7V168.13a25.74,25.74,0,0,0-18.2-24.58Zm3.2,24.58v2.05H270.19v-2.05a10.71,10.71,0,0,1,10.7-10.7H432A10.71,10.71,0,0,1,442.68,168.13ZM312.1,231.49H270.19V185.18H442.68V333.67H331.05V250.44a19,19,0,0,0-18.95-18.95Zm3.95,28.81H227.52v-9.86a4,4,0,0,1,3.95-3.95H312.1a4,4,0,0,1,3.95,3.95v9.86ZM424.48,39.8V142.43H280.89a25.73,25.73,0,0,0-25.7,25.7v63.36H231.47a19,19,0,0,0-18.95,18.93H15V39.8Zm-197,235.5h88.53v91.5H227.52ZM32.3,15H407.18a17.29,17.29,0,0,1,15.56,9.8h-406A17.31,17.31,0,0,1,32.3,15Zm-16,250.42H212.52v10.81H32.3A17.34,17.34,0,0,1,16.27,265.42Zm130.59,38.9L159,291.23h53.5v13.09ZM312.1,395.61H231.47a4,4,0,0,1-3.95-3.95V381.8h88.53v9.86A4,4,0,0,1,312.1,395.61ZM432,361.42H331.05V348.67H442.68v2.05A10.71,10.71,0,0,1,432,361.42Z"/></g></g></svg>